<mxfile host="app.diagrams.net" modified="2023-03-08T02:26:43.681Z" agent="5.0 (Macintosh; Intel Mac OS X 10_15_7) AppleWebKit/537.36 (KHTML, like Gecko) Chrome/110.0.0.0 Safari/537.36" etag="FRwoAggctwiIYDtmMzml" version="21.0.2" type="github">
  <diagram id="1qVJCfuYaMeoUfc-0dYW" name="Page-1">
    <mxGraphModel dx="1434" dy="828" grid="1" gridSize="10" guides="1" tooltips="1" connect="1" arrows="1" fold="1" page="1" pageScale="1" pageWidth="827" pageHeight="1169" math="0" shadow="0">
      <root>
        <mxCell id="0" />
        <mxCell id="1" parent="0" />
        <mxCell id="QOcSFR8y_e22kkafj4sU-1" value="&lt;b&gt;Bifrost&lt;/b&gt;" style="ellipse;whiteSpace=wrap;html=1;aspect=fixed;" parent="1" vertex="1">
          <mxGeometry x="120" y="210" width="170" height="170" as="geometry" />
        </mxCell>
        <mxCell id="QOcSFR8y_e22kkafj4sU-2" value="&lt;b&gt;Filecoin&lt;/b&gt;" style="ellipse;whiteSpace=wrap;html=1;aspect=fixed;" parent="1" vertex="1">
          <mxGeometry x="550" y="210" width="170" height="170" as="geometry" />
        </mxCell>
        <mxCell id="QOcSFR8y_e22kkafj4sU-10" value="worker" style="ellipse;whiteSpace=wrap;html=1;aspect=fixed;" parent="1" vertex="1">
          <mxGeometry x="681.25" y="320" width="35" height="35" as="geometry" />
        </mxCell>
        <mxCell id="QOcSFR8y_e22kkafj4sU-11" value="SLP module" style="shape=cylinder3;whiteSpace=wrap;html=1;boundedLbl=1;backgroundOutline=1;size=15;" parent="1" vertex="1">
          <mxGeometry x="160" y="180" width="72.5" height="60" as="geometry" />
        </mxCell>
        <mxCell id="womPOICztjm91fhaPhi_-1" value="Relayer" style="shape=cylinder3;whiteSpace=wrap;html=1;boundedLbl=1;backgroundOutline=1;size=15;" parent="1" vertex="1">
          <mxGeometry x="390" y="390" width="60" height="80" as="geometry" />
        </mxCell>
        <mxCell id="womPOICztjm91fhaPhi_-3" value="miner" style="ellipse;whiteSpace=wrap;html=1;aspect=fixed;" parent="1" vertex="1">
          <mxGeometry x="671.25" y="375" width="30" height="30" as="geometry" />
        </mxCell>
        <mxCell id="womPOICztjm91fhaPhi_-4" value="miner" style="ellipse;whiteSpace=wrap;html=1;aspect=fixed;" parent="1" vertex="1">
          <mxGeometry x="711.25" y="375" width="30" height="30" as="geometry" />
        </mxCell>
        <mxCell id="womPOICztjm91fhaPhi_-7" value="" style="endArrow=none;dashed=1;html=1;rounded=0;exitX=1;exitY=0.5;exitDx=0;exitDy=0;" parent="1" source="womPOICztjm91fhaPhi_-3" edge="1">
          <mxGeometry width="50" height="50" relative="1" as="geometry">
            <mxPoint x="701.25" y="435" as="sourcePoint" />
            <mxPoint x="711.25" y="390" as="targetPoint" />
          </mxGeometry>
        </mxCell>
        <mxCell id="womPOICztjm91fhaPhi_-15" value="vFIL Staking - FVM" style="text;html=1;strokeColor=none;fillColor=none;align=center;verticalAlign=middle;whiteSpace=wrap;rounded=0;fontStyle=1;fontSize=24;" parent="1" vertex="1">
          <mxGeometry x="88" y="60" width="260" height="30" as="geometry" />
        </mxCell>
        <mxCell id="yuQFEDINcLpY2eNo5cRC-3" value="worker" style="ellipse;whiteSpace=wrap;html=1;aspect=fixed;" parent="1" vertex="1">
          <mxGeometry x="721.25" y="320" width="35" height="35" as="geometry" />
        </mxCell>
        <mxCell id="yuQFEDINcLpY2eNo5cRC-4" value="" style="endArrow=none;dashed=1;html=1;rounded=0;exitX=1;exitY=0.5;exitDx=0;exitDy=0;entryX=0;entryY=0.5;entryDx=0;entryDy=0;" parent="1" source="QOcSFR8y_e22kkafj4sU-10" target="yuQFEDINcLpY2eNo5cRC-3" edge="1">
          <mxGeometry width="50" height="50" relative="1" as="geometry">
            <mxPoint x="711.25" y="495" as="sourcePoint" />
            <mxPoint x="761.25" y="445" as="targetPoint" />
          </mxGeometry>
        </mxCell>
        <mxCell id="a1JTIRyVCKcMxM_mY2sI-9" value="" style="curved=1;endArrow=classic;html=1;rounded=0;exitX=1;exitY=0.5;exitDx=0;exitDy=0;entryX=0.5;entryY=0;entryDx=0;entryDy=0;" parent="1" source="RrVUwCcEiHpy9CQjJfdU-1" target="yuQFEDINcLpY2eNo5cRC-3" edge="1">
          <mxGeometry width="50" height="50" relative="1" as="geometry">
            <mxPoint x="671.25" y="205" as="sourcePoint" />
            <mxPoint x="790" y="180" as="targetPoint" />
            <Array as="points">
              <mxPoint x="790" y="230" />
            </Array>
          </mxGeometry>
        </mxCell>
        <mxCell id="a1JTIRyVCKcMxM_mY2sI-10" value="1. Tranfer precommit&lt;br&gt;pledge to worker accounts" style="edgeLabel;html=1;align=center;verticalAlign=middle;resizable=0;points=[];" parent="a1JTIRyVCKcMxM_mY2sI-9" vertex="1" connectable="0">
          <mxGeometry x="-0.3056" y="-18" relative="1" as="geometry">
            <mxPoint x="16" y="1" as="offset" />
          </mxGeometry>
        </mxCell>
        <mxCell id="a1JTIRyVCKcMxM_mY2sI-14" value="" style="endArrow=classic;html=1;rounded=0;dashed=1;exitX=0.5;exitY=1;exitDx=0;exitDy=0;entryX=1;entryY=0;entryDx=0;entryDy=52.5;entryPerimeter=0;" parent="1" source="RrVUwCcEiHpy9CQjJfdU-1" target="womPOICztjm91fhaPhi_-1" edge="1">
          <mxGeometry width="50" height="50" relative="1" as="geometry">
            <mxPoint x="635" y="260" as="sourcePoint" />
            <mxPoint x="580" y="400" as="targetPoint" />
          </mxGeometry>
        </mxCell>
        <mxCell id="a1JTIRyVCKcMxM_mY2sI-15" value="2. Relay staking&lt;br&gt;&amp;nbsp;status." style="edgeLabel;html=1;align=center;verticalAlign=middle;resizable=0;points=[];" parent="a1JTIRyVCKcMxM_mY2sI-14" vertex="1" connectable="0">
          <mxGeometry x="0.0066" y="3" relative="1" as="geometry">
            <mxPoint x="-4" y="26" as="offset" />
          </mxGeometry>
        </mxCell>
        <mxCell id="a1JTIRyVCKcMxM_mY2sI-17" value="" style="endArrow=classic;html=1;rounded=0;dashed=1;exitX=0;exitY=0;exitDx=0;exitDy=52.5;exitPerimeter=0;entryX=0.607;entryY=1.008;entryDx=0;entryDy=0;entryPerimeter=0;" parent="1" source="womPOICztjm91fhaPhi_-1" target="QOcSFR8y_e22kkafj4sU-11" edge="1">
          <mxGeometry width="50" height="50" relative="1" as="geometry">
            <mxPoint x="210" y="480" as="sourcePoint" />
            <mxPoint x="260" y="430" as="targetPoint" />
          </mxGeometry>
        </mxCell>
        <mxCell id="a1JTIRyVCKcMxM_mY2sI-18" value="" style="curved=1;endArrow=classic;html=1;rounded=0;dashed=1;entryX=1;entryY=0;entryDx=0;entryDy=15;entryPerimeter=0;exitX=0;exitY=0;exitDx=0;exitDy=15;exitPerimeter=0;" parent="1" source="QOcSFR8y_e22kkafj4sU-11" target="QOcSFR8y_e22kkafj4sU-11" edge="1">
          <mxGeometry width="50" height="50" relative="1" as="geometry">
            <mxPoint x="70" y="440" as="sourcePoint" />
            <mxPoint x="120" y="390" as="targetPoint" />
            <Array as="points">
              <mxPoint x="170" y="150" />
              <mxPoint x="250" y="160" />
            </Array>
          </mxGeometry>
        </mxCell>
        <mxCell id="a1JTIRyVCKcMxM_mY2sI-19" value="3. Update&lt;br&gt;staking&lt;br&gt;ledger." style="edgeLabel;html=1;align=center;verticalAlign=middle;resizable=0;points=[];" parent="a1JTIRyVCKcMxM_mY2sI-18" vertex="1" connectable="0">
          <mxGeometry x="0.1016" y="-5" relative="1" as="geometry">
            <mxPoint x="-9" y="-11" as="offset" />
          </mxGeometry>
        </mxCell>
        <mxCell id="RrVUwCcEiHpy9CQjJfdU-1" value="vFil contract" style="swimlane;whiteSpace=wrap;html=1;fillColor=#f8cecc;strokeColor=#b85450;" vertex="1" parent="1">
          <mxGeometry x="590" y="200" width="100" height="40" as="geometry" />
        </mxCell>
        <mxCell id="RrVUwCcEiHpy9CQjJfdU-3" value="" style="endArrow=none;dashed=1;html=1;dashPattern=1 3;strokeWidth=2;rounded=0;entryX=1;entryY=1;entryDx=0;entryDy=0;exitX=0.5;exitY=0;exitDx=0;exitDy=0;" edge="1" parent="1" source="womPOICztjm91fhaPhi_-3" target="QOcSFR8y_e22kkafj4sU-2">
          <mxGeometry width="50" height="50" relative="1" as="geometry">
            <mxPoint x="695" y="370" as="sourcePoint" />
            <mxPoint x="680" y="430" as="targetPoint" />
          </mxGeometry>
        </mxCell>
        <mxCell id="RrVUwCcEiHpy9CQjJfdU-4" value="" style="endArrow=none;dashed=1;html=1;dashPattern=1 3;strokeWidth=2;rounded=0;entryX=0.5;entryY=1;entryDx=0;entryDy=0;exitX=0.5;exitY=0;exitDx=0;exitDy=0;" edge="1" parent="1" source="womPOICztjm91fhaPhi_-4" target="yuQFEDINcLpY2eNo5cRC-3">
          <mxGeometry width="50" height="50" relative="1" as="geometry">
            <mxPoint x="750" y="470" as="sourcePoint" />
            <mxPoint x="800" y="420" as="targetPoint" />
          </mxGeometry>
        </mxCell>
        <mxCell id="RrVUwCcEiHpy9CQjJfdU-7" value="" style="endArrow=none;dashed=1;html=1;dashPattern=1 3;strokeWidth=2;rounded=0;entryX=1;entryY=1;entryDx=0;entryDy=0;exitX=1;exitY=0.5;exitDx=0;exitDy=0;" edge="1" parent="1" source="QOcSFR8y_e22kkafj4sU-10" target="RrVUwCcEiHpy9CQjJfdU-1">
          <mxGeometry width="50" height="50" relative="1" as="geometry">
            <mxPoint x="600" y="460" as="sourcePoint" />
            <mxPoint x="650" y="410" as="targetPoint" />
          </mxGeometry>
        </mxCell>
      </root>
    </mxGraphModel>
  </diagram>
</mxfile>
